<svg xmlns="http://www.w3.org/2000/svg" viewBox="0 0 1200 800" role="img" aria-labelledby="title desc">
  <title id="title">Figma prototype preview</title>
  <desc id="desc">A portfolio cover image for a Figma interactive prototype project.</desc>
  <defs>
    <linearGradient id="bg" x1="0" y1="0" x2="1" y2="1">
      <stop offset="0" stop-color="#fff7ed"/>
      <stop offset="0.52" stop-color="#eef5ff"/>
      <stop offset="1" stop-color="#f8fafc"/>
    </linearGradient>
    <linearGradient id="panel" x1="0" y1="0" x2="1" y2="1">
      <stop offset="0" stop-color="#ffffff"/>
      <stop offset="1" stop-color="#f8fafc"/>
    </linearGradient>
    <filter id="shadow" x="-20%" y="-20%" width="140%" height="140%">
      <feDropShadow dx="0" dy="22" stdDeviation="28" flood-color="#0f172a" flood-opacity="0.14"/>
    </filter>
  </defs>
  <rect width="1200" height="800" fill="url(#bg)"/>
  <circle cx="1020" cy="120" r="92" fill="#f97316" opacity="0.13"/>
  <circle cx="160" cy="680" r="130" fill="#2563eb" opacity="0.1"/>
  <rect x="110" y="98" width="980" height="604" rx="42" fill="url(#panel)" filter="url(#shadow)"/>
  <rect x="110" y="98" width="980" height="72" rx="42" fill="#10183b"/>
  <circle cx="162" cy="134" r="10" fill="#fb7185"/>
  <circle cx="198" cy="134" r="10" fill="#fbbf24"/>
  <circle cx="234" cy="134" r="10" fill="#34d399"/>
  <rect x="304" y="122" width="322" height="24" rx="12" fill="#ffffff" opacity="0.18"/>
  <rect x="170" y="226" width="228" height="386" rx="28" fill="#ffffff" stroke="#dbeafe" stroke-width="4"/>
  <rect x="450" y="226" width="228" height="386" rx="28" fill="#ffffff" stroke="#dbeafe" stroke-width="4"/>
  <rect x="730" y="226" width="228" height="386" rx="28" fill="#ffffff" stroke="#dbeafe" stroke-width="4"/>
  <rect x="198" y="262" width="172" height="112" rx="20" fill="#eff6ff"/>
  <rect x="478" y="262" width="172" height="112" rx="20" fill="#fff7ed"/>
  <rect x="758" y="262" width="172" height="112" rx="20" fill="#eef2ff"/>
  <rect x="206" y="410" width="152" height="18" rx="9" fill="#1e293b" opacity="0.88"/>
  <rect x="206" y="448" width="112" height="14" rx="7" fill="#64748b" opacity="0.72"/>
  <rect x="486" y="410" width="152" height="18" rx="9" fill="#1e293b" opacity="0.88"/>
  <rect x="486" y="448" width="124" height="14" rx="7" fill="#64748b" opacity="0.72"/>
  <rect x="766" y="410" width="152" height="18" rx="9" fill="#1e293b" opacity="0.88"/>
  <rect x="766" y="448" width="108" height="14" rx="7" fill="#64748b" opacity="0.72"/>
  <rect x="226" y="522" width="116" height="38" rx="19" fill="#2563eb"/>
  <rect x="506" y="522" width="116" height="38" rx="19" fill="#f97316"/>
  <rect x="786" y="522" width="116" height="38" rx="19" fill="#4338ca"/>
  <path d="M398 416 C432 390 422 318 450 310" fill="none" stroke="#2563eb" stroke-width="5" stroke-linecap="round" stroke-dasharray="10 14"/>
  <path d="M678 416 C712 390 702 318 730 310" fill="none" stroke="#f97316" stroke-width="5" stroke-linecap="round" stroke-dasharray="10 14"/>
  <circle cx="284" cy="318" r="24" fill="#2563eb"/>
  <path d="M276 318h16m-8-8v16" stroke="#ffffff" stroke-width="5" stroke-linecap="round"/>
  <circle cx="564" cy="318" r="24" fill="#f97316"/>
  <path d="M552 318h24" stroke="#ffffff" stroke-width="5" stroke-linecap="round"/>
  <circle cx="844" cy="318" r="24" fill="#4338ca"/>
  <path d="M836 310l16 8-16 8z" fill="#ffffff"/>
  <text x="170" y="660" fill="#10183b" font-family="Arial, sans-serif" font-size="34" font-weight="700">Figma Prototype</text>
  <text x="170" y="698" fill="#64748b" font-family="Arial, sans-serif" font-size="20">Wireframe / UI Flow / Interactive Demo</text>
</svg>
